<?xml version="1.0" encoding="UTF-8"?>
<svg version="1.1" viewBox="0 0 5400 5400" xmlns="http://www.w3.org/2000/svg">
<path transform="translate(2614.6 751.75)" d="m0 0c3.896 2.0505 4.9739 5.2102 6.375 9.25 1.4459 8.0276 1.1675 16.328 1.1964 24.453 0.0087236 1.4763 0.017836 2.9525 0.027295 4.4288 0.024966 4.1103 0.043664 8.2206 0.061158 12.331 0.01617 3.6406 0.035655 7.2812 0.055001 10.922 0.060907 11.511 0.11109 23.022 0.15879 34.533 0.023947 5.7762 0.049201 11.552 0.074826 17.328 0.41609 94.001 0.55936 188 0.93657 508.27 0.037144 36.694 0.076453 73.389 0.11764 110.08 0.0020438 1.8215 0.0020438 1.8215 0.0041289 3.6799 0.010976 9.7814 0.02196 19.563 0.03296 29.344 0.049194 43.747 0.096952 87.494 0.14429 131.24 0.0048808 4.5106 0.0097702 9.0213 0.014668 13.532 0.0024252 2.2342 0.0048503 4.4685 0.0072752 6.7027 0.0017924 1.651 0.0017924 1.651 0.0036211 3.3353 0.0059673 5.504 0.011893 11.008 0.017738 16.512 0.0023107 2.1752 0.0046216 4.3504 0.0069326 6.5255 0.0011368 1.0709 0.0022735 2.1418 0.0034447 3.2451 0.0068384 6.4044 0.014022 12.809 0.021477 19.213 0.023434 20.208 0.042547 40.415 0.041178 60.623-3.1855e-4 7.5296 9.2332e-4 15.059 0.0028793 22.589 4.7413e-4 1.8263 8.8826e-4 3.6525 0.0012413 5.4788 0.0050542 22.649 0.098163 45.293 0.36298 67.94 0.099327 8.5695 0.16942 17.139 0.23793 25.709 0.058874 6.923 0.16053 13.843 0.30089 20.765 0.072929 4.0852 0.10471 8.17 0.12472 12.256 0.01748 1.8184 0.052012 3.6368 0.10685 5.4544 0.38585 13.084-2.7383 21.67-9.8576 32.636-1.6734 2.5979-3.1938 5.277-4.717 7.9649-1.0568 1.8031-2.1154 3.6052-3.1758 5.4062-1.2037 2.0544-2.4068 4.1091-3.6094 6.1641-0.60908 1.0406-1.2182 2.0812-1.8457 3.1533-3.1174 5.3415-6.2068 10.699-9.2949 16.058-0.62221 1.0796-1.2444 2.1592-1.8855 3.2715-1.2621 2.1903-2.5241 4.3808-3.7859 6.5713-3.1279 5.4288-6.2597 10.855-9.3911 16.282-1.25 2.1667-2.5 4.3333-3.75 6.5-32.5 56.333-65 112.67-97.5 169-0.61883 1.0727-1.2377 2.1453-1.8752 3.2505-1.2491 2.1651-2.4983 4.3301-3.7476 6.4951-3.1392 5.4406-6.2771 10.882-9.4124 16.325-6.0223 10.452-12.062 20.893-18.152 31.305-5.0753 8.6776-10.085 17.391-15.062 26.125-5.54 9.7212-11.134 19.409-16.783 29.067-6.1542 10.524-12.24 21.087-18.325 31.651-3.1279 5.4288-6.2597 10.855-9.3911 16.282-1.25 2.1667-2.5 4.3333-3.75 6.5-37.5 65-75 130-112.5 195-0.61883 1.0727-1.2377 2.1453-1.8752 3.2505-1.2491 2.1651-2.4983 4.3301-3.7476 6.4951-3.1392 5.4406-6.2771 10.882-9.4124 16.325-6.0223 10.452-12.062 20.893-18.152 31.305-5.0753 8.6776-10.085 17.391-15.062 26.125-5.54 9.7212-11.134 19.409-16.783 29.067-6.1542 10.524-12.24 21.087-18.325 31.651-3.1279 5.4288-6.2597 10.855-9.3911 16.282-1.25 2.1667-2.5 4.3333-3.75 6.5-37.5 65-75 130-112.5 195-0.61883 1.0727-1.2377 2.1453-1.8752 3.2505-1.2491 2.1651-2.4983 4.3301-3.7476 6.4951-3.1392 5.4406-6.2771 10.882-9.4124 16.325-6.0223 10.452-12.062 20.893-18.152 31.305-5.0753 8.6776-10.085 17.391-15.062 26.125-5.54 9.7212-11.134 19.409-16.783 29.067-6.1542 10.524-12.24 21.087-18.325 31.651-3.1279 5.4288-6.2597 10.855-9.3911 16.282-1.25 2.1667-2.5 4.3333-3.75 6.5-37.5 65-75 130-112.5 195-0.61883 1.0727-1.2377 2.1453-1.8752 3.2505-1.2491 2.1651-2.4983 4.3301-3.7476 6.4951-3.1392 5.4406-6.2771 10.882-9.4124 16.325-6.0223 10.452-12.062 20.893-18.152 31.305-5.0753 8.6776-10.085 17.391-15.062 26.125-5.54 9.7212-11.134 19.409-16.783 29.067-6.1542 10.524-12.24 21.087-18.325 31.651-3.1279 5.4288-6.2597 10.855-9.3911 16.282-1.25 2.1667-2.5 4.3333-3.75 6.5-32.5 56.333-65 112.67-97.5 169-0.61939 1.0736-1.2388 2.1473-1.877 3.2534-1.2435 2.1553-2.4869 4.3106-3.7305 6.4658-2.8872 5.0041-5.7741 10.008-8.6595 15.014-1.0092 1.7506-2.0186 3.5011-3.028 5.2515-1.2568 2.1795-2.5133 4.3592-3.7695 6.5391-1.1559 2.0044-2.3202 4.004-3.4934 5.9983-1.1407 2.0078-2.2183 4.0526-3.2339 6.1265-4.4041 8.6187-9.8162 12.321-18.271 16.664-1.2497 0.67296-2.4976 1.3494-3.7437 2.0291-2.5572 1.3918-5.1213 2.7693-7.6914 4.137-5.7066 3.0532-11.286 6.3256-16.877 9.584-2.1506 1.243-4.3016 2.4852-6.4531 3.7266-2.1407 1.2369-4.2813 2.4739-6.4219 3.7109-13.948 8.0609-27.91 16.097-41.905 24.077-8.0579 4.5966-16.089 9.2359-24.095 13.923-8.5952 5.0318-17.223 10.004-25.875 14.938-9.0958 5.1869-18.182 10.389-27.25 15.625-1.0661 0.61553-2.1321 1.2311-3.2305 1.8652-3.2151 1.857-6.4299 3.7145-9.6445 5.5723-13.948 8.0609-27.91 16.097-41.905 24.077-8.0579 4.5966-16.089 9.2359-24.095 13.923-8.5952 5.0318-17.223 10.004-25.875 14.938-9.0958 5.1869-18.182 10.389-27.25 15.625-1.0661 0.61553-2.1321 1.2311-3.2305 1.8652-3.2151 1.857-6.4299 3.7145-9.6445 5.5723-13.948 8.0609-27.91 16.097-41.905 24.077-8.0579 4.5966-16.089 9.2359-24.095 13.923-8.5952 5.0318-17.223 10.004-25.875 14.938-9.0958 5.1869-18.182 10.389-27.25 15.625-1.0661 0.61553-2.1321 1.2311-3.2305 1.8652-3.2151 1.857-6.4299 3.7145-9.6445 5.5723-13.948 8.0609-27.91 16.097-41.905 24.077-8.0579 4.5966-16.089 9.2359-24.095 13.923-8.5952 5.0318-17.223 10.004-25.875 14.938-9.0958 5.1869-18.182 10.389-27.25 15.625-1.0661 0.61553-2.1321 1.2311-3.2305 1.8652-3.2151 1.857-6.4299 3.7145-9.6445 5.5723-13.948 8.0609-27.91 16.097-41.905 24.077-8.0579 4.5966-16.089 9.2359-24.095 13.923-8.5952 5.0318-17.223 10.004-25.875 14.938-9.0958 5.1869-18.182 10.389-27.25 15.625-1.0661 0.61553-2.1321 1.2311-3.2305 1.8652-3.2151 1.857-6.4299 3.7145-9.6445 5.5723-13.948 8.0609-27.91 16.097-41.905 24.077-8.0579 4.5966-16.089 9.2359-24.095 13.923-8.5952 5.0318-17.223 10.004-25.875 14.938-9.0958 5.1869-18.182 10.389-27.25 15.625-1.0661 0.61553-2.1321 1.2311-3.2305 1.8652-3.2151 1.857-6.4299 3.7145-9.6445 5.5723-13.948 8.0609-27.91 16.097-41.905 24.077-8.0579 4.5966-16.089 9.2359-24.095 13.923-8.5952 5.0318-17.223 10.004-25.875 14.938-9.0958 5.1869-18.182 10.389-27.25 15.625-1.0588 0.61118-2.1176 1.2224-3.2085 1.8521-5.482 3.1656-10.962 6.3351-16.44 9.5073-26.934 15.588-26.934 15.588-37.227 21.078-0.6115 0.32887-1.223 0.65774-1.853 0.99658-6.827 3.6163-13.282 6.6626-21.147 5.0034-2-2-2-2-2.2578-4.0391 0.48579-9.4587 4.7892-16.864 9.2578-24.961 0.75434-1.3943 1.5082-2.7888 2.2617-4.1836 5.1877-9.5205 10.662-18.875 16.143-28.229 4.5859-7.8321 9.103-15.702 13.595-23.588 5.5395-9.7214 11.134-19.409 16.783-29.067 6.1542-10.524 12.24-21.087 18.325-31.651 3.1279-5.4288 6.2597-10.855 9.3911-16.282 1.25-2.1667 2.5-4.3333 3.75-6.5 32.5-56.333 65-112.67 97.5-169 0.61883-1.0727 1.2377-2.1453 1.8752-3.2505 1.2491-2.1651 2.4983-4.3301 3.7476-6.4951 3.1392-5.4406 6.2771-10.882 9.4124-16.325 6.0223-10.452 12.062-20.893 18.152-31.305 5.0753-8.6776 10.085-17.391 15.062-26.125 5.54-9.7212 11.134-19.409 16.783-29.067 6.1542-10.524 12.24-21.087 18.325-31.651 3.1279-5.4288 6.2597-10.855 9.3911-16.282 1.25-2.1667 2.5-4.3333 3.75-6.5 37.5-65 75-130 112.5-195 0.61883-1.0727 1.2377-2.1453 1.8752-3.2505 1.2491-2.1651 2.4983-4.3301 3.7476-6.4951 3.1392-5.4406 6.2771-10.882 9.4124-16.325 6.0223-10.452 12.062-20.893 18.152-31.305 5.0753-8.6776 10.085-17.391 15.062-26.125 5.54-9.7212 11.134-19.409 16.783-29.067 6.1542-10.524 12.24-21.087 18.325-31.651 3.1279-5.4288 6.2597-10.855 9.3911-16.282 1.25-2.1667 2.5-4.3333 3.75-6.5 37.5-65 75-130 112.5-195 0.61883-1.0727 1.2377-2.1453 1.8752-3.2505 1.2491-2.1651 2.4983-4.3301 3.7476-6.4951 3.1392-5.4406 6.2771-10.882 9.4124-16.325 6.0223-10.452 12.062-20.893 18.152-31.305 5.0753-8.6776 10.085-17.391 15.062-26.125 5.54-9.7212 11.134-19.409 16.783-29.067 6.1542-10.524 12.24-21.087 18.325-31.651 3.1279-5.4288 6.2597-10.855 9.3911-16.282 1.25-2.1667 2.5-4.3333 3.75-6.5 32.5-56.333 65-112.67 97.5-169 0.61883-1.0727 1.2377-2.1453 1.8752-3.2505 1.2491-2.1651 2.4983-4.3301 3.7476-6.4951 3.1392-5.4406 6.2771-10.882 9.4124-16.325 6.0223-10.452 12.062-20.893 18.152-31.305 5.0753-8.6776 10.085-17.391 15.062-26.125 5.54-9.7212 11.134-19.409 16.783-29.067 6.1542-10.524 12.24-21.087 18.325-31.651 3.1279-5.4288 6.2597-10.855 9.3911-16.282 1.25-2.1667 2.5-4.3333 3.75-6.5 37.5-65 75-130 112.5-195 0.61883-1.0727 1.2377-2.1453 1.8752-3.2505 1.2491-2.1651 2.4983-4.3301 3.7476-6.4951 3.1392-5.4406 6.2771-10.882 9.4124-16.325 6.0223-10.452 12.062-20.893 18.152-31.305 5.0753-8.6776 10.085-17.391 15.062-26.125 5.54-9.7212 11.134-19.409 16.783-29.067 6.1542-10.524 12.24-21.087 18.325-31.651 3.1279-5.4288 6.2597-10.855 9.3911-16.282 1.25-2.1667 2.5-4.3333 3.75-6.5 56.25-97.5 56.25-97.5 112.5-195 0.61883-1.0727 1.2377-2.1453 1.8752-3.2505 1.2491-2.1651 2.4983-4.3301 3.7476-6.4951 3.1392-5.4406 6.2771-10.882 9.4124-16.325 6.0223-10.452 12.062-20.893 18.152-31.305 5.0753-8.6776 10.085-17.391 15.062-26.125 5.54-9.7212 11.134-19.409 16.783-29.067 6.1542-10.524 12.24-21.087 18.325-31.651 3.1279-5.4288 6.2597-10.855 9.3911-16.282 1.25-2.1667 2.5-4.3333 3.75-6.5 37.5-65 75-130 112.5-195 0.61883-1.0727 1.2377-2.1453 1.8752-3.2505 1.2491-2.1651 2.4983-4.3301 3.7476-6.4951 3.1392-5.4406 6.2771-10.882 9.4124-16.325 6.0223-10.452 12.062-20.893 18.152-31.305 5.0753-8.6776 10.085-17.391 15.062-26.125 5.54-9.7212 11.134-19.409 16.783-29.067 6.1542-10.524 12.24-21.087 18.325-31.651 3.1279-5.4288 6.2597-10.855 9.3911-16.282 1.25-2.1667 2.5-4.3333 3.75-6.5 37.5-65 75-130 112.5-195 0.61883-1.0727 1.2377-2.1453 1.8752-3.2505 1.2491-2.1651 2.4983-4.3301 3.7476-6.4951 3.1392-5.4406 6.2771-10.882 9.4124-16.325 6.0223-10.452 12.062-20.893 18.152-31.305 5.0753-8.6776 10.085-17.391 15.062-26.125 5.54-9.7212 11.134-19.409 16.783-29.067 6.1542-10.524 12.24-21.087 18.325-31.651 3.1279-5.4288 6.2597-10.855 9.3911-16.282 1.25-2.1667 2.5-4.3333 3.75-6.5 37.5-65 75-130 112.5-195 0.61883-1.0727 1.2377-2.1453 1.8752-3.2505 1.2491-2.1651 2.4983-4.3301 3.7476-6.4951 3.1392-5.4406 6.2771-10.882 9.4124-16.325 6.0223-10.452 12.062-20.893 18.152-31.305 5.0753-8.6776 10.085-17.391 15.062-26.125 5.54-9.7212 11.134-19.409 16.783-29.067 6.1542-10.524 12.24-21.087 18.325-31.651 3.1279-5.4288 6.2597-10.855 9.3911-16.282 1.25-2.1667 2.5-4.3333 3.75-6.5 17.5-30.333 35-60.667 52.5-91 0.61899-1.0732 1.238-2.1465 1.8757-3.2522 1.2465-2.16 2.494-4.3193 3.7427-6.478 3.1879-5.5146 6.3548-11.04 9.4871-16.586 5.6024-9.8883 11.218-19.719 17.707-29.059 0.69646-1.0162 0.69646-1.0162 1.407-2.053 3.2235-4.4914 6.8271-8.7669 12.656-9.322z" fill="#FEFEFE"/>
<path transform="translate(2785,753)" d="m0 0c2.7374-0.20295 4.4943-0.28268 6.9219 1.0742 12.077 10.658 19.264 25.92 27.112 39.717 3.4612 6.0854 6.9632 12.147 10.466 18.208 1.2502 2.1666 2.5002 4.3332 3.75 6.5l1.875 3.25c110.62 191.75 110.62 191.75 112.5 195 1.2491 2.1651 2.4983 4.3301 3.7476 6.4951 3.1392 5.4406 6.2771 10.882 9.4124 16.325 6.0223 10.452 12.062 20.893 18.152 31.305 5.4217 9.27 10.765 18.583 16.082 27.913 5.2012 9.1244 10.461 18.213 15.764 27.278 6.1542 10.524 12.24 21.087 18.325 31.651 3.1279 5.4288 6.2597 10.855 9.3911 16.282 1.25 2.1667 2.5 4.3333 3.75 6.5l1.875 3.25c110.62 191.75 110.62 191.75 112.5 195 1.2491 2.1651 2.4983 4.3301 3.7476 6.4951 3.1392 5.4406 6.2771 10.882 9.4124 16.325 6.0223 10.452 12.062 20.893 18.152 31.305 5.4217 9.27 10.765 18.583 16.082 27.913 5.2012 9.1244 10.461 18.213 15.764 27.278 6.1542 10.524 12.24 21.087 18.325 31.651 3.1279 5.4288 6.2597 10.855 9.3911 16.282 1.25 2.1667 2.5 4.3333 3.75 6.5l1.875 3.25c110.62 191.75 110.62 191.75 112.5 195 1.2491 2.1651 2.4983 4.3301 3.7476 6.4951 3.1392 5.4406 6.2771 10.882 9.4124 16.325 6.0223 10.452 12.062 20.893 18.152 31.305 5.4217 9.27 10.765 18.583 16.082 27.913 5.2012 9.1244 10.461 18.213 15.764 27.278 6.1542 10.524 12.24 21.087 18.325 31.651 3.1279 5.4288 6.2597 10.855 9.3911 16.282 1.25 2.1667 2.5 4.3333 3.75 6.5l1.875 3.25c110.63 191.75 110.63 191.75 112.5 195 1.2491 2.1651 2.4983 4.3301 3.7476 6.4951 3.1392 5.4406 6.2771 10.882 9.4124 16.325 6.0223 10.452 12.062 20.893 18.152 31.305 5.4217 9.27 10.765 18.583 16.082 27.913 5.2012 9.1244 10.461 18.213 15.764 27.278 6.1542 10.524 12.24 21.087 18.325 31.651 3.1279 5.4288 6.2597 10.855 9.3911 16.282 1.25 2.1667 2.5 4.3333 3.75 6.5l1.875 3.25c110.63 191.75 110.63 191.75 112.5 195 1.2491 2.1651 2.4983 4.3301 3.7476 6.4951 3.1392 5.4406 6.2771 10.882 9.4124 16.325 6.0223 10.452 12.062 20.893 18.152 31.305 5.4217 9.27 10.765 18.583 16.082 27.913 5.2012 9.1244 10.461 18.213 15.764 27.278 6.1542 10.524 12.24 21.087 18.325 31.651 3.1279 5.4288 6.2597 10.855 9.3911 16.282 1.25 2.1667 2.5 4.3333 3.75 6.5l1.875 3.25c110.62 191.75 110.62 191.75 112.5 195 1.2491 2.1651 2.4983 4.3301 3.7476 6.4951 3.1392 5.4406 6.2771 10.882 9.4124 16.325 6.0223 10.452 12.062 20.893 18.152 31.305 5.4217 9.27 10.765 18.583 16.082 27.913 5.2012 9.1244 10.461 18.213 15.764 27.278 6.1542 10.524 12.24 21.087 18.325 31.651 3.1279 5.4288 6.2597 10.855 9.3911 16.282 1.25 2.1667 2.5 4.3333 3.75 6.5l1.875 3.25c95.625 165.75 95.625 165.75 97.5 169 1.2491 2.1651 2.4983 4.3301 3.7476 6.4951 3.1392 5.4406 6.2771 10.882 9.4124 16.325 6.0223 10.452 12.062 20.893 18.152 31.305 5.4217 9.27 10.765 18.583 16.082 27.913 5.2012 9.1244 10.461 18.213 15.764 27.278 6.1542 10.524 12.24 21.087 18.325 31.651 3.1279 5.4288 6.2597 10.855 9.3911 16.282 1.25 2.1667 2.5 4.3333 3.75 6.5l1.875 3.25c110.62 191.75 110.62 191.75 112.5 195 1.2491 2.1651 2.4983 4.3301 3.7476 6.4951 3.1392 5.4406 6.2771 10.882 9.4124 16.325 6.0223 10.452 12.062 20.893 18.152 31.305 5.4217 9.27 10.765 18.583 16.082 27.913 5.2012 9.1244 10.461 18.213 15.764 27.278 6.1542 10.524 12.24 21.087 18.325 31.651 3.1279 5.4288 6.2597 10.855 9.3911 16.282 1.25 2.1667 2.5 4.3333 3.75 6.5l1.875 3.25c110.62 191.75 110.62 191.75 112.5 195 1.2491 2.1651 2.4983 4.3301 3.7476 6.4951 3.1392 5.4406 6.2771 10.882 9.4124 16.325 6.0223 10.452 12.062 20.893 18.152 31.305 5.4217 9.27 10.765 18.583 16.082 27.913 5.2012 9.1244 10.461 18.213 15.764 27.278 6.1542 10.524 12.24 21.087 18.325 31.651 3.1279 5.4288 6.2597 10.855 9.3911 16.282 1.25 2.1667 2.5 4.3333 3.75 6.5l1.875 3.25c26.875 46.583 53.75 93.167 80.625 139.75 0.61899 1.0729 1.238 2.1458 1.8757 3.2512 1.2476 2.1626 2.4952 4.3252 3.7427 6.4878 3.161 5.4797 6.3231 10.959 9.4871 16.437 2.5222 4.3669 5.0416 8.7355 7.5586 13.105 2.319 4.0262 4.6477 8.0466 6.9844 12.062 15.602 26.894 15.602 26.894 15.602 37.156-2 3-2 3-4.0796 3.4204-6.3577-0.016102-10.916-1.1497-16.545-4.0454-0.80574-0.39824-1.6115-0.79648-2.4417-1.2068-8.7145-4.3982-17.103-9.3774-25.492-14.36-6.1797-3.6698-12.412-7.2424-18.659-10.795-9.292-5.2847-18.557-10.612-27.782-16.013-8.5952-5.0319-17.223-10.004-25.875-14.938-12.325-7.0285-24.622-14.105-36.907-21.204-5.4045-3.1221-10.811-6.2403-16.218-9.3589-6.4777-3.7364-12.955-7.4735-19.43-11.215-11.807-6.8202-23.631-13.608-35.475-20.363-9.04-5.1568-18.041-10.378-27.022-15.636-7.6223-4.4558-15.279-8.8506-22.948-13.224-14.475-8.2542-28.907-16.58-43.334-24.917-3.2217-1.8615-6.4437-3.7225-9.666-5.583-1.0661-0.61553-2.1321-1.2311-3.2305-1.8652-8.5845-4.9518-17.19-9.8655-25.799-14.775-9.04-5.1568-18.041-10.378-27.022-15.636-7.6223-4.4558-15.279-8.8506-22.948-13.224-14.475-8.2542-28.907-16.58-43.334-24.917-3.2217-1.8615-6.4437-3.7225-9.666-5.583-1.0661-0.61553-2.1321-1.2311-3.2305-1.8652-8.5845-4.9518-17.19-9.8655-25.799-14.775-9.04-5.1568-18.041-10.378-27.022-15.636-7.6223-4.4558-15.279-8.8506-22.948-13.224-14.475-8.2542-28.907-16.58-43.334-24.917-3.2217-1.8615-6.4437-3.7225-9.666-5.583-1.0661-0.61553-2.1321-1.2311-3.2305-1.8652-8.5845-4.9518-17.19-9.8655-25.799-14.775-9.04-5.1568-18.041-10.378-27.022-15.636-7.6223-4.4558-15.279-8.8506-22.948-13.224-14.475-8.2542-28.907-16.58-43.334-24.917-3.2217-1.8615-6.4437-3.7225-9.666-5.583-1.0661-0.61553-2.1321-1.2311-3.2305-1.8652-8.5845-4.9518-17.19-9.8655-25.799-14.775-9.04-5.1568-18.041-10.378-27.022-15.636-7.6223-4.4558-15.279-8.8506-22.948-13.224-14.475-8.2542-28.907-16.58-43.334-24.917-3.2217-1.8615-6.4437-3.7225-9.666-5.583-1.0661-0.61553-2.1321-1.2311-3.2305-1.8652-8.5845-4.9518-17.19-9.8655-25.799-14.775-9.04-5.1568-18.041-10.378-27.022-15.636-7.6223-4.4558-15.279-8.8506-22.948-13.224-14.475-8.2542-28.907-16.58-43.334-24.917-3.2217-1.8615-6.4438-3.7224-9.666-5.583-1.0581-0.61118-2.1162-1.2224-3.2063-1.8521-5.7644-3.3261-11.537-6.6373-17.321-9.9292-0.62026-0.35329-1.2405-0.70658-1.8796-1.0706-2.9791-1.6967-5.9594-3.3912-8.9422-5.0815-2.1786-1.2397-4.3522-2.4882-6.5205-3.7458-2.2424-1.2973-4.4896-2.5661-6.7568-3.8174-7.244-4.1519-11.589-7.7118-15.499-15.066-1.1111-1.8854-2.2246-3.7694-3.3398-5.6523-1.2023-2.0933-2.4013-4.1884-3.5977-6.2852-0.99242-1.7298-1.9848-3.4597-2.9776-5.1894-1.0226-1.7825-2.0438-3.5658-3.0649-5.3492-3.1597-5.5158-6.3411-11.019-9.52-16.524-1.2501-2.1666-2.5001-4.3333-3.75-6.5l-1.875-3.25c-110.63-191.75-110.63-191.75-112.5-195-1.2491-2.1651-2.4983-4.3301-3.7476-6.4951-3.1392-5.4406-6.2771-10.882-9.4124-16.325-6.0223-10.452-12.062-20.893-18.152-31.305-5.4217-9.27-10.765-18.583-16.082-27.913-5.2012-9.1244-10.461-18.213-15.764-27.278-6.1542-10.524-12.24-21.087-18.325-31.651-3.1279-5.4288-6.2597-10.855-9.3911-16.282-1.25-2.1667-2.5-4.3333-3.75-6.5l-1.875-3.25c-110.63-191.75-110.63-191.75-112.5-195-1.2491-2.1651-2.4983-4.3301-3.7476-6.4951-3.1392-5.4406-6.2771-10.882-9.4124-16.325-6.0223-10.452-12.062-20.893-18.152-31.305-5.4217-9.27-10.765-18.583-16.082-27.913-5.2012-9.1244-10.461-18.213-15.764-27.278-6.1542-10.524-12.24-21.087-18.325-31.651-3.1279-5.4288-6.2597-10.855-9.3911-16.282-1.25-2.1667-2.5-4.3333-3.75-6.5l-1.875-3.25c-110.63-191.75-110.63-191.75-112.5-195-1.2491-2.1651-2.4983-4.3301-3.7476-6.4951-3.1392-5.4406-6.2771-10.882-9.4124-16.325-6.0223-10.452-12.062-20.893-18.152-31.305-5.4217-9.27-10.765-18.583-16.082-27.913-5.2012-9.1244-10.461-18.213-15.764-27.278-6.1542-10.524-12.24-21.087-18.325-31.651-3.1279-5.4288-6.2597-10.855-9.3911-16.282-1.25-2.1667-2.5-4.3333-3.75-6.5l-1.875-3.25c-110.62-191.75-110.62-191.75-112.5-195-1.2491-2.1651-2.4983-4.3301-3.7476-6.4951-3.1392-5.4406-6.2771-10.882-9.4124-16.325-6.0223-10.452-12.062-20.893-18.152-31.305-5.4217-9.27-10.765-18.583-16.082-27.913-5.2012-9.1244-10.461-18.213-15.764-27.278-6.1542-10.524-12.24-21.087-18.325-31.651-3.1279-5.4288-6.2597-10.855-9.3911-16.282-1.25-2.1667-2.5-4.3333-3.75-6.5l-1.875-3.25c-95.625-165.75-95.625-165.75-97.501-169-1.2467-2.161-2.4935-4.322-3.7402-6.4829-3.1752-5.5036-6.3501-11.007-9.5244-16.511-0.64646-1.1208-1.2929-2.2417-1.959-3.3965-1.2046-2.0885-2.409-4.177-3.6133-6.2656-0.56396-0.97775-1.1279-1.9555-1.709-2.9629-0.8252-1.4816-0.8252-1.4816-1.6671-2.9932-1.4898-2.599-3.1287-5.0035-4.897-7.4204-9.466-13.552-9.8146-25.951-9.5462-42.105 0.047598-3.6237 0.029828-7.2473 0.02083-10.871-0.0070345-6.3489 0.026407-12.696 0.086962-19.045 0.090051-9.4727 0.11511-18.945 0.12727-28.418 0.02229-16.066 0.095107-32.131 0.19573-48.197 0.13969-22.385 0.21463-44.77 0.27286-67.156 0.027567-10.586 0.05781-21.172 0.088671-31.758 0.0030823-1.0627 0.0061646-2.1254 0.0093404-3.2203 0.048125-16.458 0.10906-32.916 0.17738-49.374 0.009246-2.2358 0.018489-4.4715 0.027729-6.7073 0.0045844-1.1089 0.0091689-2.2178 0.013892-3.3603 0.23889-57.823 0.34214-115.65 0.36474-173.47 0.0017546-4.419 0.0036685-8.8381 0.0055813-13.257 0.0076644-17.744 0.014836-35.489 0.020795-53.233 0.010918-32.246 0.034615-64.492 0.068993-96.738 0.0011746-1.1031 0.0023492-2.2061 0.0035595-3.3426 0.016683-15.613 0.034213-31.226 0.051922-46.838 0.02017-17.822 0.039937-35.643 0.059643-53.465 0.0037108-3.3508 0.0074397-6.7015 0.011171-10.052 0.039561-35.597 0.071293-71.194 0.099844-106.79 0.030997-38.607 0.068356-77.215 0.11422-115.82 0.0064426-5.4236 0.012819-10.847 0.019157-16.271 0.0012483-1.0655 0.0024966-2.131 0.0037827-3.2288 0.019701-16.964 0.032859-33.929 0.043447-50.893 0.010659-16.833 0.028534-33.665 0.053874-50.498 0.014755-9.9428 0.024059-19.886 0.0254-29.828 0.0014417-6.6376 0.010122-13.275 0.024589-19.913 0.0080154-3.7699 0.013015-7.5397 0.0091229-11.31-0.035602-40.789-0.035602-40.789 6.2817-52.053z" fill="#FEFEFE"/>
<path transform="translate(1734.5 3818.3)" d="m0 0c4.2601 0.034139 8.5196-0.0082571 12.78-0.040269 7.4767-0.045858 14.952-0.04391 22.429-0.010047 11.193 0.050454 22.385 0.025459 33.577-0.013723 19.08-0.064588 38.159-0.067664 57.239-0.036939 19.329 0.030913 38.657 0.033558 57.986 0.0019092 1.222-0.0019807 2.4439-0.0039614 3.7029-0.0060021 4.9771-0.0081579 9.9542-0.016512 14.931-0.025116 46.334-0.080023 92.667-0.095639 139-0.069323 0.68588 3.8889e-4 1.3718 7.7778e-4 2.0784 0.0011785 2.7768 0.0015756 5.5536 0.0031538 8.3305 0.004734 7.671 0.0043575 15.342 0.0085682 23.013 0.012596 1.0389 5.4941e-4 1.0389 5.4941e-4 2.0988 0.0011099 32.116 0.016833 64.231 0.0056699 96.347-0.011395 3.505-0.0018507 7.01-0.0036427 10.515-0.0054375 5.6259-0.0028868 11.252-0.0057879 16.878-0.0087123 0.69764-3.6265e-4 1.3953-7.2529e-4 2.1141-0.0010989 4.2344-0.002205 8.4688-0.0044369 12.703-0.0066835 32.216-0.017068 64.433-0.02956 96.649-0.038027 1.0759-2.847e-4 1.0759-2.847e-4 2.1736-5.7514e-4 46.446-0.0122 92.892-0.0037354 139.34 0.019143 1.4979 7.3349e-4 2.9958 0.0014667 4.4937 0.0021997 16.536 0.0081101 33.072 0.016649 49.607 0.025349 0.74638 3.9249e-4 1.4928 7.8498e-4 2.2618 0.0011894 6.7916 0.0035721 13.583 0.0071444 20.375 0.010749 75.075 0.039814 150.15 0.053814 284.21-0.061785 24.817-0.023471 49.633-0.046713 74.45-0.068659 0.74093-6.5703e-4 1.4819-0.0013141 2.2452-0.001991 46.417-0.041114 92.833-0.062686 139.25-0.062079 0.7171 7.48e-6 1.4342 1.495e-5 2.173 2.266e-5 32.202 3.8243e-4 64.405 0.00591 96.607 0.01623 11.264 0.0035987 22.527 0.0068687 33.791 0.010043 2.802 7.9159e-4 5.6041 0.0016113 8.4061 0.0024538 32.114 0.0095942 64.228 0.0082531 96.343-0.027433 1.0379-0.0011501 1.0379-0.0011501 2.0968-0.0023234 11.13-0.012379 22.259-0.025562 33.389-0.038753 46.898-0.055487 93.796-0.052365 140.69 0.021796 4.9646 0.0076218 9.9291 0.014989 14.894 0.022157 1.2184 0.0017823 2.4367 0.0035647 3.692 0.005401 19.272 0.026756 38.544 1.57e-5 57.815-0.049105 18.962-0.047194 37.923-0.037005 56.885 0.033717 11.109 0.039741 22.215 0.036241 33.324-0.032416 7.3918-0.041271 14.782-0.0238 22.174 0.040017 4.1822 0.034508 8.3603 0.04551 12.542-0.016417 22.1-0.30498 36.427 3.4416 54.836 16.029 4.9089 3.2862 10.039 6.1735 15.168 9.0995 1.9648 1.1463 3.9285 2.2945 5.8906 3.4453 6.2734 3.666 12.564 7.3009 18.859 10.93 1.0789 0.62197 2.1579 1.2439 3.2695 1.8848 3.2849 1.893 6.5701 3.7855 9.8555 5.6777 13.676 7.8766 27.34 15.771 40.966 23.733 11.651 6.803 23.343 13.534 35.034 20.267 13.676 7.8766 27.34 15.771 40.966 23.733 11.651 6.803 23.343 13.534 35.034 20.267 13.676 7.8766 27.34 15.771 40.966 23.733 11.651 6.803 23.343 13.534 35.034 20.267 13.676 7.8766 27.34 15.771 40.966 23.733 10.56 6.1663 21.155 12.272 31.752 18.376 6.5109 3.7514 13.019 7.508 19.527 11.264 5.4407 3.1393 10.882 6.2773 16.325 9.4126 11.484 6.6171 22.952 13.261 34.396 19.948 11.651 6.803 23.343 13.534 35.034 20.267 13.676 7.8766 27.34 15.771 40.966 23.733 11.651 6.803 23.343 13.534 35.034 20.267 13.676 7.8766 27.34 15.771 40.966 23.733 11.651 6.803 23.343 13.534 35.034 20.267 13.676 7.8766 27.34 15.771 40.966 23.733 11.651 6.803 23.343 13.534 35.034 20.267 13.676 7.8766 27.34 15.771 40.966 23.733 11.651 6.803 23.343 13.534 35.034 20.267 13.676 7.8766 27.34 15.771 40.966 23.733 11.651 6.803 23.343 13.534 35.034 20.267 13.676 7.8766 27.34 15.771 40.966 23.733 11.651 6.803 23.343 13.534 35.034 20.267 13.668 7.8724 27.334 15.748 40.942 23.724 5.2494 3.0725 10.516 6.1092 15.812 9.1001 19.771 11.192 19.771 11.192 28.059 17.176 0.86057 0.61234 0.86057 0.61234 1.7385 1.2371 3.8017 2.8639 7.4842 6.3565 9.449 10.763-0.32934 2.5704-0.50615 3.6121-2.5664 5.2305-0.65871 0.31582-1.3174 0.63164-1.9961 0.95703-0.64066 0.32355-1.2813 0.64711-1.9414 0.98047-7.0837 2.3612-14.751 1.9739-22.127 1.9576-1.163 0.0014316-2.3261 0.0028632-3.5244 0.0043381-3.2321 0.002964-6.4642 0.0014504-9.6964-0.0019409-3.5325-0.0025955-7.065 6.3484e-4 -10.598 0.003112-6.2253 0.0035602-12.451 0.0033871-18.676 8.135e-4 -9.3467-0.0038432-18.693-0.0018981-28.04 0.001165-16.001 0.0050738-32.001 0.005374-48.002 0.0031365-16.311-0.0022613-32.621-0.0023347-48.932 2.3271e-4 -1.033 1.6119e-4 -2.0659 3.2238e-4 -3.1302 4.8846e-4 -5.2739 8.3249e-4 -10.548 0.0016994-15.822 0.0025775-38.558 0.0063428-77.116 0.0077115-115.67 0.0065825-39.095-0.0011311-78.189-1.0316e-4 -117.28 0.0035725-2.4907 2.3199e-4 -4.9815 4.6396e-4 -7.4722 6.9591e-4 -10.042 9.3951e-4 -20.085 0.0018958-30.127 0.0028712-28.311 0.0027457-56.622 0.005125-84.932 0.007252-1.9462 1.4633e-4 -1.9462 1.4633e-4 -3.9317 2.9561e-4 -73.834 0.0055085-147.67 0.0058097-221.5 0.0062209-11.289 6.324e-5 -22.577 1.2977e-4 -33.866 2.0055e-4 -2.8293 1.77e-5 -5.6586 3.507e-5 -8.4879 5.212e-5 -63.463 3.8758e-4 -126.93 0.0025654-190.39 0.0051303-14.158 5.7155e-4 -28.317 0.0011255-42.475 0.0016806-2.1081 8.268e-5 -2.1081 8.268e-5 -4.2587 1.6704e-4 -8.5308 3.345e-4 -17.062 6.6826e-4 -25.592 0.0010016-4.2734 1.6708e-4 -8.5468 3.3459e-4 -12.82 5.0214e-4 -66.446 0.002602-132.89 0.0048323-199.34 0.0066822-1.4478 4.037e-5 -2.8957 8.074e-5 -4.3874 1.2234e-4 -92.276 0.0025635-184.55 0.0034624-276.83 0.0031997-4.5383-1.275e-5 -9.0766-2.471e-5 -13.615-3.641e-5 -31.884-8.234e-5 -63.769-1.8505e-4 -95.653-2.9288e-4 -9.1422-3.077e-5 -18.284-6.083e-5 -27.427-9.081e-5 -7.6258-2.509e-5 -15.252-5.088e-5 -22.877-7.811e-5 -144.05-5.1149e-4 -288.1 9.0771e-4 -432.14 0.010347-2.2751 1.4904e-4 -2.2751 1.4904e-4 -4.5962 3.0109e-4 -47.39 0.0031114-94.781 0.0064778-142.17 0.0098918-48.625 0.0035013-97.25 0.0069718-145.87 0.010264-2.2457 1.5229e-4 -2.2457 1.5229e-4 -4.5368 3.0765e-4 -93.737 0.0063475-187.47 0.010271-281.21 0.01155-1.4474 2.003e-5 -2.8947 4.006e-5 -4.386 6.069e-5 -63.56 8.7526e-4 -127.12 0.0011951-190.68 9.0912e-4 -25.569-1.1429e-4 -51.138-1.7035e-4 -76.707-2.0332e-4 -4.2396-6.4e-6 -8.4791-1.548e-5 -12.719-2.515e-5 -64.878-1.3656e-4 -129.76 0.0012131-194.63 0.0070452-1.4 1.2567e-4 -2.8 2.5134e-4 -4.2424 3.8082e-4 -22.522 0.0020291-45.043 0.0041731-67.565 0.0063268-63.91 0.0061065-127.82 0.011154-191.73 0.0090288-1.2959-4.272e-5 -2.5917-8.543e-5 -3.9269-1.2944e-4 -28.267-9.532e-4 -56.533-0.0024688-84.8-0.0045367-11.272-8.1637e-4 -22.544-0.00156-33.817-0.002281-1.2296-8.066e-5 -2.4593-1.6131e-4 -3.7262-2.444e-4 -39.047-0.0025267-78.093 0.0011007-117.14 0.0082622-38.427 0.0070219-76.854 0.0080056-115.28 1.1306e-4 -5.2562-0.0010787-10.512-0.0020876-15.769-0.0030546-1.0291-1.9201e-4 -2.0581-3.8403e-4 -3.1184-5.8187e-4 -16.262-0.0028517-32.523 9.9094e-4 -48.785 0.0076625-15.889 0.0063829-31.778 0.0057302-47.667-0.0025939-9.2807-0.0046487-18.561-0.0038201-27.842 0.005094-6.1412 0.0053576-12.282 0.003521-18.423-0.0042707-3.4792-0.0042112-6.9583-0.0053051-10.437 0.0024798-3.7343 0.0066858-7.4684 0.0011196-11.203-0.0075599-1.0691 0.004872-2.1383 0.009744-3.2398 0.014764-8.2988-0.040124-17.603-0.39176-24.642-5.2646-0.83984-2.3438-0.83984-2.3438-1-5 8.0966-15.153 31.209-23.816 45.518-31.897 6.265-3.5398 12.501-7.129 18.732-10.728 1.069-0.61706 2.1381-1.2341 3.2395-1.8699 8.173-4.722 16.327-9.4765 24.477-14.238 12.744-7.4413 25.537-14.797 38.325-22.162 11.586-6.6741 23.165-13.359 34.709-20.104 13.731-8.0227 27.511-15.959 41.291-23.896 11.586-6.6741 23.165-13.359 34.709-20.104 13.731-8.0227 27.511-15.959 41.291-23.896 11.586-6.6741 23.165-13.359 34.709-20.104 13.731-8.0227 27.511-15.959 41.291-23.896 11.586-6.6741 23.165-13.359 34.709-20.104 13.731-8.0227 27.511-15.959 41.291-23.896 11.586-6.6741 23.165-13.359 34.709-20.104 13.731-8.0227 27.511-15.959 41.291-23.896 11.586-6.6741 23.165-13.359 34.709-20.104 13.731-8.0227 27.511-15.959 41.291-23.896 11.586-6.6741 23.165-13.359 34.709-20.104 13.731-8.0227 27.511-15.959 41.291-23.896 11.586-6.6741 23.165-13.359 34.709-20.104 13.731-8.0227 27.511-15.959 41.291-23.896 11.586-6.6741 23.165-13.359 34.709-20.104 13.731-8.0227 27.511-15.959 41.291-23.896 11.586-6.6741 23.165-13.359 34.709-20.104 13.731-8.0227 27.511-15.959 41.291-23.896 11.586-6.6741 23.165-13.359 34.709-20.104 13.731-8.0227 27.511-15.959 41.291-23.896 11.666-6.7204 23.327-13.45 34.959-20.229 0.85997-0.50088 1.7199-1.0018 2.606-1.5178 1.3165-0.76848 1.3165-0.76848 2.6597-1.5525 0.93334-0.52295 1.8667-1.0459 2.8283-1.5847 2.786-1.6207 5.3291-3.4453 7.9075-5.3775 15.719-11.212 30.713-11.719 49.262-11.507z" fill="#FEFEFE"/>
</svg>
